<svg id="Layer_1" data-name="Layer 1" xmlns="http://www.w3.org/2000/svg" viewBox="0 0 124.99 124.06"><defs><style>.cls-1{fill:#262869;}.cls-2{fill:#bd9b2e;}</style></defs><path class="cls-1" d="M93.15,170.63l-5.25,7.54,5.38,7.71h-3l-3.79-5.63-3.81,5.63h-3L85,178.17l-5.25-7.54h3l3.69,5.49,3.68-5.49Z" transform="translate(-79.28 -79.81)"/><path class="cls-1" d="M101.13,181.75c0,3-1.35,4.4-4.11,4.4a4.34,4.34,0,0,1-2-.42v-2.29a3.78,3.78,0,0,0,1.69.41,1.64,1.64,0,0,0,1.8-1.85V170.63h2.67Z" transform="translate(-79.28 -79.81)"/><path class="cls-1" d="M105.62,185.88V170.63h9.59v2.25h-6.92v4.19h5.87v2.18h-5.87v4.38h7.24v2.25Z" transform="translate(-79.28 -79.81)"/><path class="cls-1" d="M124.11,170.63c3.45,0,5.63,1.74,5.63,4.85a4.39,4.39,0,0,1-3,4.3l3.33,6.1H127.2l-2.92-5.66h-2.69v5.66H119V170.63Zm-2.52,2.25v5.18h2.66c1.72,0,2.82-.91,2.82-2.58s-1.14-2.6-2.94-2.6Z" transform="translate(-79.28 -79.81)"/><path class="cls-1" d="M138.8,170.4h.09l7.22,15.48h-2.8l-1.35-3h-6.23l-1.35,3h-2.8Zm2.29,10.46c-.87-2-1.59-3.66-2.22-5.4-.66,1.59-1.44,3.54-2.27,5.4Z" transform="translate(-79.28 -79.81)"/><path class="cls-1" d="M153.39,185.88V170.63h2.67v13h6.2v2.25Z" transform="translate(-79.28 -79.81)"/><path class="cls-1" d="M170.67,170.4h.08L178,185.88h-2.8l-1.36-3H167.6l-1.36,3h-2.79ZM173,180.86c-.87-2-1.59-3.66-2.23-5.4-.65,1.59-1.44,3.54-2.26,5.4Z" transform="translate(-79.28 -79.81)"/><path class="cls-1" d="M191.36,181.5c0,2.75-2.21,4.38-5.45,4.38H180.6V170.63h4.83c3.11,0,5.33,1.51,5.33,4.24a3.26,3.26,0,0,1-1.92,3A3.85,3.85,0,0,1,191.36,181.5Zm-5.89-4.39c.44,0,.89,0,1.29-.06a1.92,1.92,0,0,0,1.29-2,2.2,2.2,0,0,0-2.45-2.29h-2.44v4.34Zm-2.31,6.63H186a2.36,2.36,0,0,0,2.61-2.37,2.18,2.18,0,0,0-2.31-2.35h-3.16Z" transform="translate(-79.28 -79.81)"/><path class="cls-1" d="M194.36,185.29v-2.61a9.8,9.8,0,0,0,4.07,1.1,5.53,5.53,0,0,0,1.52-.17c1.08-.25,1.74-.8,1.74-1.63,0-1.21-.87-1.86-3.2-2.69-2.79-1-4.28-2.18-4.28-4.66,0-2.66,2.23-4.27,5.32-4.27a10.73,10.73,0,0,1,3.9.76v2.5a8.21,8.21,0,0,0-3.71-.91c-1.74,0-2.9.72-2.9,1.88s.8,1.8,3.13,2.65c2.8,1,4.32,2.22,4.32,4.64,0,2.66-2,4.27-5.44,4.27A12.23,12.23,0,0,1,194.36,185.29Z" transform="translate(-79.28 -79.81)"/><polygon class="cls-2" points="97.44 11.68 86.2 0 74.96 11.68 86.2 23.35 97.44 11.68"/><polygon class="cls-1" points="62.45 24.68 38.7 0 27.47 11.68 51.22 36.36 27.47 61.04 38.7 72.72 62.45 48.03 86.2 72.72 97.44 61.04 73.69 36.36 62.45 24.68"/><path class="cls-2" d="M83.57,200.85v-.79a2.16,2.16,0,0,1-1.88.87,2.26,2.26,0,0,1-1.6-.58,5.24,5.24,0,0,1,0-5.6,2.26,2.26,0,0,1,1.6-.58,2.14,2.14,0,0,1,1.87.85v-3.71h1v9.54ZM81.91,195c-1.44,0-1.66,1.23-1.66,2.52s.22,2.52,1.66,2.52,1.65-1.23,1.65-2.52S83.34,195,81.91,195Z" transform="translate(-79.28 -79.81)"/><path class="cls-2" d="M93,200.85v-.63a2.34,2.34,0,0,1-1.9.71,2.37,2.37,0,0,1-1.87-.61,1.89,1.89,0,0,1-.49-1.34c0-1.15.8-1.9,2.28-1.9h2v-.63c0-1-.48-1.44-1.69-1.44a1.73,1.73,0,0,0-1.66.75l-.66-.61a2.56,2.56,0,0,1,2.33-1c1.77,0,2.64.77,2.64,2.2v4.48Zm0-3H91.14c-1,0-1.47.4-1.47,1.16s.47,1.13,1.51,1.13a1.89,1.89,0,0,0,1.47-.45,1.5,1.5,0,0,0,.34-1.13Z" transform="translate(-79.28 -79.81)"/><path class="cls-2" d="M100.47,200.85a1.62,1.62,0,0,1-1.69-1.77V195H98v-.73h.83v-2.07h1v2.07h1.41V195H99.74v4c0,.6.28,1,.9,1h.51v.83Z" transform="translate(-79.28 -79.81)"/><path class="cls-2" d="M109,200.85v-.63a3,3,0,0,1-3.77.1,1.89,1.89,0,0,1-.5-1.34c0-1.15.81-1.9,2.28-1.9h2v-.63c0-1-.49-1.44-1.69-1.44a1.71,1.71,0,0,0-1.66.75l-.66-.61a2.56,2.56,0,0,1,2.33-1c1.77,0,2.64.77,2.64,2.2v4.48Zm0-3h-1.85c-1,0-1.48.4-1.48,1.16s.47,1.13,1.52,1.13a1.89,1.89,0,0,0,1.47-.45,1.5,1.5,0,0,0,.34-1.13Z" transform="translate(-79.28 -79.81)"/><path class="cls-2" d="M122.15,200.85a1.62,1.62,0,0,1-1.69-1.77V195h-.83v-.73h.83v-2.07h1v2.07h1.41V195h-1.41v4c0,.6.29,1,.9,1h.51v.83Z" transform="translate(-79.28 -79.81)"/><path class="cls-2" d="M131.19,200.18a2.6,2.6,0,0,1-1.89.75,2.63,2.63,0,0,1-1.89-.75,4.72,4.72,0,0,1,0-5.26,2.63,2.63,0,0,1,1.89-.75,2.6,2.6,0,0,1,1.89.75,4.67,4.67,0,0,1,0,5.26Zm-.68-4.67a1.73,1.73,0,0,0-1.21-.48,1.69,1.69,0,0,0-1.19.48,4.12,4.12,0,0,0,0,4.08,1.64,1.64,0,0,0,1.19.48,1.69,1.69,0,0,0,1.21-.48,4.26,4.26,0,0,0,0-4.08Z" transform="translate(-79.28 -79.81)"/><path class="cls-2" d="M142,192.38v-1.09h1.08v1.09Zm.05,8.47v-6.6h1v6.6Z" transform="translate(-79.28 -79.81)"/><path class="cls-2" d="M152,200.85v-4.06a1.63,1.63,0,1,0-3.25,0v4.06h-1v-6.6h1V195a2.37,2.37,0,0,1,1.85-.81,2.3,2.3,0,0,1,1.68.62,2.44,2.44,0,0,1,.69,1.84v4.22Z" transform="translate(-79.28 -79.81)"/><path class="cls-2" d="M159.67,200.93a3.65,3.65,0,0,1-2.71-1l.64-.65a2.72,2.72,0,0,0,2.05.77c1.09,0,1.76-.39,1.76-1.17,0-.58-.34-.9-1.1-1l-1.09-.1c-1.28-.1-2-.68-2-1.77s1-1.93,2.42-1.93a3.73,3.73,0,0,1,2.37.71l-.63.63a2.82,2.82,0,0,0-1.75-.52c-1,0-1.48.42-1.48,1.09s.32.89,1.16,1l1.05.1c1.16.1,1.95.54,1.95,1.78S161.26,200.93,159.67,200.93Z" transform="translate(-79.28 -79.81)"/><path class="cls-2" d="M166.5,192.38v-1.09h1.09v1.09Zm.05,8.47v-6.6h1v6.6Z" transform="translate(-79.28 -79.81)"/><path class="cls-2" d="M174.38,203.87a2.92,2.92,0,0,1-2.24-.88l.63-.62a2,2,0,0,0,1.58.66c1.28,0,1.81-.9,1.81-2v-1a2.12,2.12,0,0,1-1.85.85,2.25,2.25,0,0,1-1.59-.59,3.74,3.74,0,0,1-.8-2.74,3.78,3.78,0,0,1,.8-2.75,2.3,2.3,0,0,1,1.61-.58,2.11,2.11,0,0,1,1.85.86v-.78h.95v6.8A2.62,2.62,0,0,1,174.38,203.87Zm.15-8.84c-1.44,0-1.65,1.23-1.65,2.47s.21,2.46,1.65,2.46,1.63-1.23,1.63-2.46S176,195,174.53,195Z" transform="translate(-79.28 -79.81)"/><path class="cls-2" d="M186.08,200.85v-4.08a1.52,1.52,0,0,0-1.61-1.74,1.56,1.56,0,0,0-1.65,1.74v4.08h-1v-9.54h1V195a2.35,2.35,0,0,1,1.85-.81,2.23,2.23,0,0,1,2.37,2.44v4.24Z" transform="translate(-79.28 -79.81)"/><path class="cls-2" d="M193.56,200.85a1.62,1.62,0,0,1-1.69-1.77V195H191v-.73h.83v-2.07h1v2.07h1.41V195h-1.41v4c0,.6.28,1,.9,1h.51v.83Z" transform="translate(-79.28 -79.81)"/><path class="cls-2" d="M200.55,200.93a3.68,3.68,0,0,1-2.71-1l.65-.65a2.69,2.69,0,0,0,2,.77c1.08,0,1.75-.39,1.75-1.17,0-.58-.33-.9-1.1-1l-1.08-.1c-1.29-.1-2-.68-2-1.77s1-1.93,2.42-1.93a3.73,3.73,0,0,1,2.37.71l-.63.63a2.8,2.8,0,0,0-1.75-.52c-1,0-1.47.42-1.47,1.09s.32.89,1.15,1l1.06.1c1.15.1,1.94.54,1.94,1.78S202.14,200.93,200.55,200.93Z" transform="translate(-79.28 -79.81)"/></svg>